<?xml version="1.0" encoding="UTF-8" standalone="no"?>
<!-- Created with Inkscape (http://www.inkscape.org/) -->

<svg
   xmlns:osb="http://www.openswatchbook.org/uri/2009/osb"
   xmlns:dc="http://purl.org/dc/elements/1.1/"
   xmlns:cc="http://creativecommons.org/ns#"
   xmlns:rdf="http://www.w3.org/1999/02/22-rdf-syntax-ns#"
   xmlns:svg="http://www.w3.org/2000/svg"
   xmlns="http://www.w3.org/2000/svg"
   xmlns:xlink="http://www.w3.org/1999/xlink"
   xmlns:sodipodi="http://sodipodi.sourceforge.net/DTD/sodipodi-0.dtd"
   xmlns:inkscape="http://www.inkscape.org/namespaces/inkscape"
   width="86"
   height="86"
   id="svg2"
   version="1.1"
   inkscape:version="0.48.2 r9819"
   sodipodi:docname="harbour-cargodock.svg"
   inkscape:export-filename="C:\Users\Stephan\Desktop\harbour-cargodock.png"
   inkscape:export-xdpi="90"
   inkscape:export-ydpi="90">
  <defs
     id="defs4">
    <pattern
       inkscape:collect="always"
       xlink:href="#Strips1_1"
       id="pattern5924"
       patternTransform="matrix(0,0.59649818,-12.578863,0,49.533333,80)" />
    <pattern
       inkscape:stockid="Stripes 1:1"
       id="Strips1_1"
       patternTransform="translate(0,0) scale(10,10)"
       height="1"
       width="2"
       patternUnits="userSpaceOnUse"
       inkscape:collect="always">
      <rect
         id="rect4683"
         height="2"
         width="1"
         y="-0.5"
         x="0"
         style="fill:black;stroke:none" />
    </pattern>
    <linearGradient
       id="linearGradient5882"
       osb:paint="solid">
      <stop
         style="stop-color:#27aa41;stop-opacity:1;"
         offset="0"
         id="stop5884" />
    </linearGradient>
    <linearGradient
       id="linearGradient3954">
      <stop
         style="stop-color:#b7b7b7;stop-opacity:1;"
         offset="0"
         id="stop3956" />
      <stop
         style="stop-color:#8f8f8f;stop-opacity:1;"
         offset="1"
         id="stop3958" />
    </linearGradient>
    <linearGradient
       id="linearGradient3789">
      <stop
         style="stop-color:#3092d8;stop-opacity:1;"
         offset="0"
         id="stop3791" />
      <stop
         style="stop-color:#cce8fc;stop-opacity:1;"
         offset="1"
         id="stop3793" />
    </linearGradient>
    <linearGradient
       inkscape:collect="always"
       xlink:href="#linearGradient3789"
       id="linearGradient3835"
       x1="45"
       y1="10"
       x2="45"
       y2="80"
       gradientUnits="userSpaceOnUse"
       spreadMethod="pad"
       gradientTransform="matrix(0.95555556,0,0,0.95555556,115,4)" />
    <radialGradient
       inkscape:collect="always"
       xlink:href="#linearGradient3954"
       id="radialGradient5641"
       cx="40.890625"
       cy="11.859374"
       fx="40.890625"
       fy="11.859374"
       r="0.765625"
       gradientUnits="userSpaceOnUse"
       spreadMethod="reflect"
       gradientTransform="matrix(0.17649589,-0.00707087,0.00704519,0.17585485,33.590047,10.062978)" />
    <linearGradient
       id="linearGradient3954-4">
      <stop
         style="stop-color:#b7b7b7;stop-opacity:1;"
         offset="0"
         id="stop3956-5" />
      <stop
         style="stop-color:#8f8f8f;stop-opacity:1;"
         offset="1"
         id="stop3958-8" />
    </linearGradient>
    <radialGradient
       r="0.765625"
       fy="11.859374"
       fx="40.890625"
       cy="11.859374"
       cx="40.890625"
       spreadMethod="reflect"
       gradientTransform="matrix(0.17649589,-0.00707087,0.00704519,0.17585485,33.590047,10.062978)"
       gradientUnits="userSpaceOnUse"
       id="radialGradient5658"
       xlink:href="#linearGradient3954-4"
       inkscape:collect="always" />
    <linearGradient
       id="linearGradient3954-4-2">
      <stop
         style="stop-color:#6f6f6f;stop-opacity:1;"
         offset="0"
         id="stop3956-5-1" />
      <stop
         style="stop-color:#828282;stop-opacity:1;"
         offset="1"
         id="stop3958-8-4" />
    </linearGradient>
    <radialGradient
       r="0.765625"
       fy="11.859374"
       fx="40.890625"
       cy="11.859374"
       cx="40.890625"
       spreadMethod="reflect"
       gradientTransform="matrix(0.17649589,-0.00707087,0.00704519,0.17585485,33.590047,10.062978)"
       gradientUnits="userSpaceOnUse"
       id="radialGradient5692"
       xlink:href="#linearGradient3954-4-2"
       inkscape:collect="always" />
    <linearGradient
       id="linearGradient3954-4-2-2">
      <stop
         style="stop-color:#b7b7b7;stop-opacity:1;"
         offset="0"
         id="stop3956-5-1-4" />
      <stop
         style="stop-color:#8f8f8f;stop-opacity:1;"
         offset="1"
         id="stop3958-8-4-5" />
    </linearGradient>
    <radialGradient
       r="0.765625"
       fy="11.859374"
       fx="40.890625"
       cy="11.859374"
       cx="40.890625"
       spreadMethod="reflect"
       gradientTransform="matrix(0.17649589,-0.00707087,0.00704519,0.17585485,33.590047,10.062978)"
       gradientUnits="userSpaceOnUse"
       id="radialGradient5726"
       xlink:href="#linearGradient3954-4-2-2"
       inkscape:collect="always" />
    <linearGradient
       inkscape:collect="always"
       xlink:href="#linearGradient3954-4-2-2"
       id="linearGradient5850"
       x1="28"
       y1="88"
       x2="28"
       y2="71"
       gradientUnits="userSpaceOnUse"
       gradientTransform="translate(-1,0)" />
    <linearGradient
       inkscape:collect="always"
       xlink:href="#linearGradient3954-4-2"
       id="linearGradient5858"
       x1="28"
       y1="65"
       x2="28"
       y2="77"
       gradientUnits="userSpaceOnUse"
       gradientTransform="translate(-1,0)" />
    <pattern
       inkscape:collect="always"
       xlink:href="#Strips1_1-6"
       id="pattern5924-2"
       patternTransform="matrix(0.49967841,-5.3563122e-5,6.4318262e-4,6.0001071,30,50)" />
    <pattern
       inkscape:stockid="Stripes 1:1"
       id="Strips1_1-6"
       patternTransform="translate(0,0) scale(10,10)"
       height="1"
       width="2"
       patternUnits="userSpaceOnUse"
       inkscape:collect="always">
      <rect
         id="rect4683-2"
         height="2"
         width="1"
         y="-0.5"
         x="0"
         style="fill:black;stroke:none" />
    </pattern>
    <pattern
       inkscape:collect="always"
       xlink:href="#Strips1_1-6-8"
       id="pattern5924-2-7"
       patternTransform="matrix(0.49967841,-5.3563122e-5,6.4318262e-4,6.0001071,21.200155,58.805903)" />
    <pattern
       inkscape:stockid="Stripes 1:1"
       id="Strips1_1-6-8"
       patternTransform="translate(0,0) scale(10,10)"
       height="1"
       width="2"
       patternUnits="userSpaceOnUse"
       inkscape:collect="always">
      <rect
         id="rect4683-2-2"
         height="2"
         width="1"
         y="-0.5"
         x="0"
         style="fill:black;stroke:none" />
    </pattern>
    <linearGradient
       y2="80"
       x2="45"
       y1="10"
       x1="45"
       spreadMethod="pad"
       gradientTransform="matrix(0.95555556,0,0,0.95555556,-1e-6,4.0000015)"
       gradientUnits="userSpaceOnUse"
       id="linearGradient3008"
       xlink:href="#linearGradient3789"
       inkscape:collect="always" />
  </defs>
  <sodipodi:namedview
     id="base"
     pagecolor="#ffffff"
     bordercolor="#666666"
     borderopacity="1.0"
     inkscape:pageopacity="0.0"
     inkscape:pageshadow="2"
     inkscape:zoom="2.8284271"
     inkscape:cx="99.507297"
     inkscape:cy="95.77706"
     inkscape:document-units="px"
     inkscape:current-layer="layer2"
     showgrid="true"
     inkscape:window-width="1920"
     inkscape:window-height="1148"
     inkscape:window-x="-8"
     inkscape:window-y="-8"
     inkscape:window-maximized="1"
     inkscape:snap-bbox="true"
     inkscape:snap-global="false"
     width="86px">
    <inkscape:grid
       type="xygrid"
       id="grid2985"
       empspacing="5"
       visible="false"
       enabled="true"
       snapvisiblegridlinesonly="true" />
  </sodipodi:namedview>
  <metadata
     id="metadata7">
    <rdf:RDF>
      <cc:Work
         rdf:about="">
        <dc:format>image/svg+xml</dc:format>
        <dc:type
           rdf:resource="http://purl.org/dc/dcmitype/StillImage" />
        <dc:title></dc:title>
      </cc:Work>
    </rdf:RDF>
  </metadata>
  <g
     inkscape:groupmode="layer"
     id="layer2"
     inkscape:label="Ebene"
     style="display:inline"
     transform="translate(0,-4)">
    <path
       style="fill:url(#linearGradient3008);fill-opacity:1.0;stroke:none;display:inline"
       d="m 42.999999,4.0000015 c -23.748241,0 -43,19.2517555 -43,42.9999975 l 0,40.790279 c 0,1.228371 0.981349,2.209721 2.209722,2.209721 l 40.790278,0 40.790282,0 c 1.22837,0 2.20972,-0.98135 2.20972,-2.209721 l 0,-81.5805545 c 0,-1.228372 -0.98135,-2.209722 -2.20972,-2.209722 l -40.790282,0 z"
       id="rect3059-9"
       inkscape:connector-curvature="0" />
    <rect
       style="fill:#aaa327;fill-opacity:1;stroke:none;display:inline"
       id="rect5860-7-7"
       width="7"
       height="7"
       x="18.200155"
       y="56.805904"
       ry="0.546875" />
    <path
       style="fill:none;stroke:#000000;stroke-width:0.30000001;stroke-linecap:butt;stroke-linejoin:miter;stroke-miterlimit:4;stroke-opacity:1;stroke-dasharray:none"
       d="M 39.465611,16.560331 68.291261,34.16066 67.573106,35.33733 38.896612,17.687282 z"
       id="path5747"
       inkscape:connector-curvature="0"
       sodipodi:nodetypes="ccccc" />
    <path
       sodipodi:type="arc"
       style="fill:url(#radialGradient5641);fill-opacity:1;stroke:none"
       id="path5629"
       sodipodi:cx="40.890625"
       sodipodi:cy="11.859374"
       sodipodi:rx="0.765625"
       sodipodi:ry="0.765625"
       d="m 41.65625,11.859374 a 0.765625,0.765625 0 1 1 -1.53125,0 0.765625,0.765625 0 1 1 1.53125,0 z"
       transform="matrix(1.3010204,0,0,1.3010204,-13.84407,1.8168051)" />
    <rect
       style="fill:#731f1f;fill-opacity:1;stroke:none;display:inline"
       id="rect5533-1-1"
       width="5"
       height="1"
       x="38.437267"
       y="-1.4844732"
       transform="matrix(0.90643447,0.42234648,-0.42234648,0.90643447,0,0)"
       ry="0.5"
       inkscape:transform-center-x="-0.47725821"
       inkscape:transform-center-y="0.60264842" />
    <path
       style="fill:none;stroke:#000000;stroke-width:0.30000001;stroke-linecap:butt;stroke-linejoin:miter;stroke-miterlimit:4;stroke-opacity:1;stroke-dasharray:none"
       d="M 30.445312,11.468749 30.55714,45.884213"
       id="path5749"
       inkscape:connector-curvature="0"
       sodipodi:nodetypes="cc" />
    <path
       style="fill:none;stroke:#000000;stroke-width:0.30000001;stroke-linecap:butt;stroke-linejoin:miter;stroke-miterlimit:4;stroke-opacity:1;stroke-dasharray:none"
       d="m 31.842231,11.664256 29.327182,72.124012 0.07288,-0.08594"
       id="path5771"
       inkscape:connector-curvature="0"
       sodipodi:nodetypes="ccc" />
    <path
       sodipodi:type="arc"
       style="fill:url(#radialGradient5726);fill-opacity:1;stroke:none;display:inline"
       id="path5629-8-9-2"
       sodipodi:cx="40.890625"
       sodipodi:cy="11.859374"
       sodipodi:rx="0.765625"
       sodipodi:ry="0.765625"
       d="m 41.65625,11.859374 a 0.765625,0.765625 0 1 1 -1.53125,0 0.765625,0.765625 0 1 1 1.53125,0 z"
       transform="matrix(1.3010204,0,0,1.3010204,-22.086256,-3.6246007)" />
    <rect
       style="fill:#731f1f;fill-opacity:1;stroke:none;display:inline"
       id="rect5533-1-1-5-2"
       width="2.9634724"
       height="0.98408884"
       x="9.2777357"
       y="-34.702419"
       transform="matrix(-0.255464,0.96681857,-0.99994547,-0.01044286,0,0)"
       ry="0.49204442"
       inkscape:transform-center-x="0.44322967"
       inkscape:transform-center-y="0.3902023" />
    <rect
       style="fill:#731f1f;fill-opacity:1;stroke:none;display:inline"
       id="rect5533-1-1-5-2-7"
       width="2.9634724"
       height="0.98408884"
       x="-36.684807"
       y="0.8342132"
       transform="matrix(-0.94848993,-0.31680727,0.07440809,-0.99722788,0,0)"
       ry="0.49204442"
       inkscape:transform-center-x="0.095415107" />
    <path
       style="fill:#4d4d4d;fill-opacity:1;stroke:none"
       d="M 70,77 31,10 c 0.380265,-0.6867647 0.931508,-1.1625366 2,-1 l 38,66"
       id="path3952"
       inkscape:connector-curvature="0"
       sodipodi:nodetypes="cccc" />
    <rect
       style="opacity:0.9;fill:#000000;fill-opacity:1;stroke:none"
       id="rect3802"
       width="2"
       height="1"
       x="72"
       y="47"
       ry="0" />
    <rect
       style="fill:#4d4d4d;fill-opacity:1;stroke:none;display:inline"
       id="rect3802-1"
       width="2"
       height="1"
       x="72"
       y="47"
       ry="0" />
    <rect
       style="fill:#4d4d4d;fill-opacity:1;stroke:none;display:inline"
       id="rect3802-1-7"
       width="3"
       height="1"
       x="72"
       y="51"
       ry="0" />
    <rect
       style="fill:#4d4d4d;fill-opacity:1;stroke:none;display:inline"
       id="rect3802-1-7-4"
       width="3"
       height="1"
       x="72"
       y="56"
       ry="0" />
    <rect
       style="fill:#4d4d4d;fill-opacity:1;stroke:none;display:inline"
       id="rect3802-1-7-4-0"
       width="4"
       height="1"
       x="72"
       y="60"
       ry="0" />
    <rect
       style="fill:#4d4d4d;fill-opacity:1;stroke:none;display:inline"
       id="rect3802-1-7-4-0-9"
       width="5"
       height="1"
       x="72"
       y="66"
       ry="0" />
    <rect
       style="fill:#4d4d4d;fill-opacity:1;stroke:none;display:inline"
       id="rect3802-1-7-4-0-9-4-8"
       width="7"
       height="1"
       x="72"
       y="77"
       ry="0" />
    <rect
       style="fill:#4d4d4d;fill-opacity:1;stroke:none;display:inline"
       id="rect3802-1-8"
       width="1"
       height="1"
       x="72"
       y="42"
       ry="0" />
    <path
       style="fill:#a12b2b;fill-opacity:1;stroke:none;display:inline"
       d="m 64.21875,63.1875 c -0.738485,0.168196 -1.324823,0.453563 -1.78125,0.84375 L 70,77 71,75 64.21875,63.1875 z"
       id="path3952-7"
       inkscape:connector-curvature="0" />
    <path
       style="fill:none;stroke:#000000;stroke-width:0.30000001;stroke-linecap:butt;stroke-linejoin:miter;stroke-miterlimit:4;stroke-opacity:1;stroke-dasharray:none"
       d="M 42.013175,25.03102 68.369314,38.637158 69.625001,65.375"
       id="path5745"
       inkscape:connector-curvature="0"
       sodipodi:nodetypes="ccc" />
    <path
       sodipodi:type="arc"
       style="fill:url(#radialGradient5692);fill-opacity:1;stroke:none;display:inline"
       id="path5629-8-9"
       sodipodi:cx="40.890625"
       sodipodi:cy="11.859374"
       sodipodi:rx="0.765625"
       sodipodi:ry="0.765625"
       d="m 41.65625,11.859374 a 0.765625,0.765625 0 1 1 -1.53125,0 0.765625,0.765625 0 1 1 1.53125,0 z"
       transform="matrix(1.3010204,0,0,1.3010204,14.464526,23.672274)" />
    <rect
       style="fill:#731f1f;fill-opacity:1;stroke:none"
       id="rect5533"
       width="5"
       height="1"
       x="30.257429"
       y="71.375687"
       transform="matrix(0.80048244,-0.59935621,0.59935621,0.80048244,0,0)"
       ry="0.5" />
    <path
       sodipodi:type="arc"
       style="fill:url(#radialGradient5658);fill-opacity:1;stroke:none;display:inline"
       id="path5629-8"
       sodipodi:cx="40.890625"
       sodipodi:cy="11.859374"
       sodipodi:rx="0.765625"
       sodipodi:ry="0.765625"
       d="m 41.65625,11.859374 a 0.765625,0.765625 0 1 1 -1.53125,0 0.765625,0.765625 0 1 1 1.53125,0 z"
       transform="matrix(1.3010204,0,0,1.3010204,14.480151,19.117587)" />
    <rect
       style="fill:#731f1f;fill-opacity:1;stroke:none;display:inline"
       id="rect5533-1"
       width="5"
       height="1"
       x="75.467751"
       y="2.2226942"
       transform="matrix(0.90643447,0.42234648,-0.42234648,0.90643447,0,0)"
       ry="0.5" />
    <rect
       style="fill:#a12b2b;fill-opacity:1;stroke:none"
       id="rect3950"
       width="1"
       height="10"
       x="73"
       y="67"
       ry="0" />
    <rect
       style="fill:#4d4d4d;fill-opacity:1;stroke:none;display:inline"
       id="rect3802-1-7-4-0-9-4"
       width="6"
       height="1"
       x="72"
       y="71"
       ry="0" />
    <path
       style="fill:#4d4d4d;fill-opacity:1;stroke:none"
       d="m 72,85 0,-47 7,47 4,0 0,-11 -9,-39 -1,-1 -3,0 -1,51 z"
       id="path3032"
       inkscape:connector-curvature="0" />
    <path
       style="fill:none;stroke:#000000;stroke-width:0.30000001;stroke-linecap:butt;stroke-linejoin:miter;stroke-miterlimit:4;stroke-opacity:1;stroke-dasharray:none"
       d="M 40.553022,26.092639 61.492188,83.742187"
       id="path5769"
       inkscape:connector-curvature="0"
       sodipodi:nodetypes="cc" />
    <path
       style="fill:#a12b2b;fill-opacity:1;stroke:none;display:inline"
       d="m 42.09375,24.875 c -0.742202,0.109561 -1.261743,0.610099 -1.71875,1.21875 L 50.28125,43.125 C 50.62516,42.509514 51.262276,42.074092 52,42 L 42.15625,24.875 c -0.02114,0.0025 -0.04171,-0.0031 -0.0625,0 z"
       id="path3952-5"
       inkscape:connector-curvature="0" />
    <rect
       style="fill:#731f1f;fill-opacity:1;stroke:none;display:inline"
       id="rect5533-1-1-5-2-9"
       width="2.9634724"
       height="0.98408884"
       x="106.46667"
       y="-31.073177"
       transform="matrix(0.33566035,0.94198308,-0.83083456,0.55651948,0,0)"
       ry="0.49204442"
       inkscape:transform-center-x="0.1451214"
       inkscape:transform-center-y="0.57240562" />
    <rect
       style="fill:#731f1f;fill-opacity:1;stroke:none;display:inline"
       id="rect5533-1-1-5-2-7-9"
       width="2.9634724"
       height="0.98408884"
       x="-55.290981"
       y="24.654619"
       transform="matrix(-0.3905589,-0.92057794,0.79661413,-0.60448815,0,0)"
       ry="0.49204442"
       inkscape:transform-center-x="0.063173242"
       inkscape:transform-center-y="-0.071506057" />
    <path
       style="fill:#a12b2b;fill-opacity:1;stroke:none;display:inline"
       d="m 70,34 -0.125,7 2.125,0 0,-3 0.4375,3 2.9375,0 L 74,35 73,34 70,34 z"
       id="path3032-8"
       inkscape:connector-curvature="0" />
    <path
       style="fill:url(#linearGradient5850);fill-opacity:1;stroke:none"
       d="M 19,90 36,90 39,77 27,71 15,77 z"
       id="path5814"
       inkscape:connector-curvature="0" />
    <rect
       style="opacity:0.25;fill:url(#pattern5924-2-7);fill-opacity:1;stroke:none;display:inline"
       id="rect5860-8-5-8"
       width="7"
       height="7"
       x="18.200155"
       y="56.805904"
       ry="0.546875"
       inkscape:transform-center-x="0.7"
       inkscape:transform-center-y="0.5" />
    <rect
       style="fill:#d6d6d6;fill-opacity:1;stroke:none"
       id="rect5818"
       width="20"
       height="10"
       x="17"
       y="60"
       ry="0.097656243" />
    <path
       style="fill:url(#linearGradient5858);fill-opacity:1;stroke:none"
       d="m 15,77 12,-6 12,6 0,-2 3,-3 -15,-7 -15,7 3,3 0,2"
       id="path5816"
       inkscape:connector-curvature="0"
       sodipodi:nodetypes="ccccccccc" />
    <path
       style="fill:#d6d6d6;fill-opacity:1;stroke:none"
       d="M 42 81 C 40.892 81 40 81.892 40 83 L 40 84 L 40 86 L 42 86 L 44 86 L 84 86 C 85.108 86 86 85.108 86 84 L 86 83 L 86 81 L 84 81 L 83 81 L 42 81 z "
       transform="translate(0,4)"
       id="rect5825" />
    <path
       style="fill:#0094f0;fill-opacity:1;stroke:none"
       d="m 0,84 c 0,1.108 0.892,2 2,2 l 36,0 2,0 0,-2 c -0.990715,0.162024 -1.461961,0.06431 -2,0 C 32.995955,83.783987 29.182518,83.298567 25.991039,83.779916 23.225638,84.197003 20.769647,83.926462 19,84 15.792506,84.163309 12.591675,84.577431 9.4576846,84.169262 6.0906855,83.730746 3.029153,83.818532 0,84 z"
       transform="translate(0,4)"
       id="rect5833"
       inkscape:connector-curvature="0"
       sodipodi:nodetypes="csccccscsc" />
    <rect
       style="fill:#aa2727;fill-opacity:1;stroke:none"
       id="rect5860"
       width="14"
       height="7"
       x="43"
       y="78"
       ry="0.546875" />
    <rect
       style="opacity:0.25;fill:url(#pattern5924);fill-opacity:1;stroke:none;display:inline"
       id="rect5860-8"
       width="14"
       height="7"
       x="43"
       y="78"
       ry="0.546875"
       inkscape:transform-center-x="1.4"
       inkscape:transform-center-y="0.5" />
    <rect
       style="fill:#aa2727;fill-opacity:1;stroke:none;display:inline"
       id="rect5860-7"
       width="7"
       height="7"
       x="27"
       y="48"
       ry="0.546875" />
    <rect
       style="opacity:0.25;fill:url(#pattern5924-2);fill-opacity:1;stroke:none;display:inline"
       id="rect5860-8-5"
       width="7"
       height="7"
       x="27"
       y="48"
       ry="0.546875"
       inkscape:transform-center-x="0.7"
       inkscape:transform-center-y="0.5" />
    <rect
       style="opacity:1;fill:#731f1f;fill-opacity:1;stroke:none"
       id="rect5988"
       width="1"
       height="3"
       x="30.055243"
       y="43.055244"
       ry="0.5" />
    <path
       style="fill:none;stroke:#000000;stroke-width:0.30000001;stroke-linecap:butt;stroke-linejoin:miter;stroke-miterlimit:4;stroke-opacity:1;stroke-dasharray:none;display:inline"
       d="m 29.812174,45.480719 0.08839,6.397534"
       id="path5749-0"
       inkscape:connector-curvature="0"
       sodipodi:nodetypes="cc" />
    <path
       style="fill:none;stroke:#000000;stroke-width:0.30000001;stroke-linecap:butt;stroke-linejoin:miter;stroke-miterlimit:4;stroke-opacity:1;stroke-dasharray:none;display:inline"
       d="m 31.25633,45.36367 0.03315,6.552214"
       id="path5749-0-2"
       inkscape:connector-curvature="0"
       sodipodi:nodetypes="cc" />
    <rect
       style="fill:#731f1f;fill-opacity:1;stroke:none"
       id="rect5990"
       width="2"
       height="2.2320194"
       x="29.541378"
       y="44.591206"
       ry="1.1160097" />
    <rect
       style="fill:#767676;fill-opacity:1;stroke:none"
       id="rect6028"
       width="2.519068"
       height="0.49718451"
       x="29.311787"
       y="51.451633"
       ry="0.090948388" />
    <path
       sodipodi:type="arc"
       style="fill:#2b1100;fill-opacity:1;stroke:none"
       id="path6032"
       sodipodi:cx="28.869844"
       sodipodi:cy="47.727844"
       sodipodi:rx="0.11048543"
       sodipodi:ry="0.11048543"
       d="m 28.98033,47.727844 a 0.11048543,0.11048543 0 1 1 -0.220971,0 0.11048543,0.11048543 0 1 1 0.220971,0 z"
       transform="translate(0.69605825,3.9889515)" />
    <path
       sodipodi:type="arc"
       style="fill:#2b1100;fill-opacity:1;stroke:none;display:inline"
       id="path6032-0"
       sodipodi:cx="28.869844"
       sodipodi:cy="47.727844"
       sodipodi:rx="0.11048543"
       sodipodi:ry="0.11048543"
       d="m 28.98033,47.727844 a 0.11048543,0.11048543 0 1 1 -0.220971,0 0.11048543,0.11048543 0 1 1 0.220971,0 z"
       transform="translate(2.7179416,3.9779037)" />
    <path
       sodipodi:type="arc"
       style="fill:#2b1100;fill-opacity:1;stroke:none;display:inline"
       id="path6032-0-8"
       sodipodi:cx="28.869844"
       sodipodi:cy="47.727844"
       sodipodi:rx="0.11048543"
       sodipodi:ry="0.11048543"
       d="m 28.98033,47.727844 a 0.11048543,0.11048543 0 1 1 -0.220971,0 0.11048543,0.11048543 0 1 1 0.220971,0 z"
       transform="translate(1.66833,-4.2201156)" />
    <path
       sodipodi:type="arc"
       style="fill:#2b1100;fill-opacity:1;stroke:none;display:inline"
       id="path6032-0-8-9"
       sodipodi:cx="28.869844"
       sodipodi:cy="47.727844"
       sodipodi:rx="0.11048543"
       sodipodi:ry="0.11048543"
       d="m 28.98033,47.727844 a 0.11048543,0.11048543 0 1 1 -0.220971,0 0.11048543,0.11048543 0 1 1 0.220971,0 z"
       transform="translate(1.66833,-3.2201158)" />
    <path
       sodipodi:type="arc"
       style="fill:#2b1100;fill-opacity:1;stroke:none;display:inline"
       id="path6032-0-8-2"
       sodipodi:cx="28.869844"
       sodipodi:cy="47.727844"
       sodipodi:rx="0.11048543"
       sodipodi:ry="0.11048543"
       d="m 28.98033,47.727844 a 0.11048543,0.11048543 0 1 1 -0.220971,0 0.11048543,0.11048543 0 1 1 0.220971,0 z"
       transform="translate(11.83299,-14.252193)" />
    <path
       sodipodi:type="arc"
       style="fill:#2b1100;fill-opacity:1;stroke:none;display:inline"
       id="path6032-0-8-8"
       sodipodi:cx="28.869844"
       sodipodi:cy="47.727844"
       sodipodi:rx="0.11048543"
       sodipodi:ry="0.11048543"
       d="m 28.98033,47.727844 a 0.11048543,0.11048543 0 1 1 -0.220971,0 0.11048543,0.11048543 0 1 1 0.220971,0 z"
       transform="translate(12.540097,-12.440232)" />
    <path
       sodipodi:type="arc"
       style="fill:#2b1100;fill-opacity:1;stroke:none;display:inline"
       id="path6032-0-8-9-2"
       sodipodi:cx="28.869844"
       sodipodi:cy="47.727844"
       sodipodi:rx="0.11048543"
       sodipodi:ry="0.11048543"
       d="m 28.98033,47.727844 a 0.11048543,0.11048543 0 1 1 -0.220971,0 0.11048543,0.11048543 0 1 1 0.220971,0 z"
       transform="translate(32.490485,36.032719)" />
    <path
       sodipodi:type="arc"
       style="fill:#2b1100;fill-opacity:1;stroke:none;display:inline"
       id="path6032-0-8-2-0"
       sodipodi:cx="28.869844"
       sodipodi:cy="47.727844"
       sodipodi:rx="0.11048543"
       sodipodi:ry="0.11048543"
       d="m 28.98033,47.727844 a 0.11048543,0.11048543 0 1 1 -0.220971,0 0.11048543,0.11048543 0 1 1 0.220971,0 z"
       transform="translate(41.365081,-7.0318071)" />
    <path
       sodipodi:type="arc"
       style="fill:#2b1100;fill-opacity:1;stroke:none;display:inline"
       id="path6032-0-8-2-0-5"
       sodipodi:cx="28.869844"
       sodipodi:cy="47.727844"
       sodipodi:rx="0.11048543"
       sodipodi:ry="0.11048543"
       d="m 28.98033,47.727844 a 0.11048543,0.11048543 0 1 1 -0.220971,0 0.11048543,0.11048543 0 1 1 0.220971,0 z"
       transform="translate(42.707586,-7.0207583)" />
    <path
       sodipodi:type="arc"
       style="fill:#2b1100;fill-opacity:1;stroke:none;display:inline"
       id="path6032-0-8-2-0-5-5"
       sodipodi:cx="28.869844"
       sodipodi:cy="47.727844"
       sodipodi:rx="0.11048543"
       sodipodi:ry="0.11048543"
       d="m 28.98033,47.727844 a 0.11048543,0.11048543 0 1 1 -0.220971,0 0.11048543,0.11048543 0 1 1 0.220971,0 z"
       transform="translate(43.96712,-7.0097093)" />
    <path
       sodipodi:type="arc"
       style="fill:#2b1100;fill-opacity:1;stroke:none;display:inline"
       id="path6032-0-8-2-0-5-5-2"
       sodipodi:cx="28.869844"
       sodipodi:cy="47.727844"
       sodipodi:rx="0.11048543"
       sodipodi:ry="0.11048543"
       d="m 28.98033,47.727844 a 0.11048543,0.11048543 0 1 1 -0.220971,0 0.11048543,0.11048543 0 1 1 0.220971,0 z"
       transform="translate(46.110538,-7.009709)" />
    <path
       sodipodi:type="arc"
       style="fill:#2b1100;fill-opacity:1;stroke:none;display:inline"
       id="path6032-0-8-2-0-5-5-2-7"
       sodipodi:cx="28.869844"
       sodipodi:cy="47.727844"
       sodipodi:rx="0.11048543"
       sodipodi:ry="0.11048543"
       d="m 28.98033,47.727844 a 0.11048543,0.11048543 0 1 1 -0.220971,0 0.11048543,0.11048543 0 1 1 0.220971,0 z"
       transform="translate(41.448053,-13.473107)" />
    <path
       sodipodi:type="arc"
       style="fill:#2b1100;fill-opacity:1;stroke:none;display:inline"
       id="path6032-0-8-2-0-5-5-2-6"
       sodipodi:cx="28.869844"
       sodipodi:cy="47.727844"
       sodipodi:rx="0.11048543"
       sodipodi:ry="0.11048543"
       d="m 28.98033,47.727844 a 0.11048543,0.11048543 0 1 1 -0.220971,0 0.11048543,0.11048543 0 1 1 0.220971,0 z"
       transform="translate(42.088868,-13.473107)" />
    <path
       sodipodi:type="arc"
       style="fill:#2b1100;fill-opacity:1;stroke:none;display:inline"
       id="path6032-0-8-2-0-5-5-2-7-7"
       sodipodi:cx="28.869844"
       sodipodi:cy="47.727844"
       sodipodi:rx="0.11048543"
       sodipodi:ry="0.11048543"
       d="m 28.98033,47.727844 a 0.11048543,0.11048543 0 1 1 -0.220971,0 0.11048543,0.11048543 0 1 1 0.220971,0 z"
       transform="translate(43.304422,-13.473107)" />
    <path
       sodipodi:type="arc"
       style="fill:#2b1100;fill-opacity:1;stroke:none;display:inline"
       id="path6032-0-8-2-0-5-5-2-6-8"
       sodipodi:cx="28.869844"
       sodipodi:cy="47.727844"
       sodipodi:rx="0.11048543"
       sodipodi:ry="0.11048543"
       d="m 28.98033,47.727844 a 0.11048543,0.11048543 0 1 1 -0.220971,0 0.11048543,0.11048543 0 1 1 0.220971,0 z"
       transform="translate(43.945237,-13.473107)" />
    <path
       sodipodi:type="arc"
       style="fill:#2b1100;fill-opacity:1;stroke:none;display:inline"
       id="path6032-0-8-2-0-5-5-2-6-8-7"
       sodipodi:cx="28.869844"
       sodipodi:cy="47.727844"
       sodipodi:rx="0.11048543"
       sodipodi:ry="0.11048543"
       d="m 28.98033,47.727844 a 0.11048543,0.11048543 0 1 1 -0.220971,0 0.11048543,0.11048543 0 1 1 0.220971,0 z"
       transform="translate(44.884363,-12.622369)" />
    <path
       sodipodi:type="arc"
       style="fill:#2b1100;fill-opacity:1;stroke:none;display:inline"
       id="path6032-0-8-2-0-5-5-8"
       sodipodi:cx="28.869844"
       sodipodi:cy="47.727844"
       sodipodi:rx="0.11048543"
       sodipodi:ry="0.11048543"
       d="m 28.98033,47.727844 a 0.11048543,0.11048543 0 1 1 -0.220971,0 0.11048543,0.11048543 0 1 1 0.220971,0 z"
       transform="translate(44.618857,19.96858)" />
    <path
       sodipodi:type="arc"
       style="fill:#2b1100;fill-opacity:1;stroke:none;display:inline"
       id="path6032-0-8-2-0-5-5-8-1"
       sodipodi:cx="28.869844"
       sodipodi:cy="47.727844"
       sodipodi:rx="0.11048543"
       sodipodi:ry="0.11048543"
       d="m 28.98033,47.727844 a 0.11048543,0.11048543 0 1 1 -0.220971,0 0.11048543,0.11048543 0 1 1 0.220971,0 z"
       transform="translate(44.65792,22.726392)" />
    <path
       sodipodi:type="arc"
       style="fill:#2b1100;fill-opacity:1;stroke:none;display:inline"
       id="path6032-0-8-2-0-5-5-8-1-6"
       sodipodi:cx="28.869844"
       sodipodi:cy="47.727844"
       sodipodi:rx="0.11048543"
       sodipodi:ry="0.11048543"
       d="m 28.98033,47.727844 a 0.11048543,0.11048543 0 1 1 -0.220971,0 0.11048543,0.11048543 0 1 1 0.220971,0 z"
       transform="translate(44.650107,24.867017)" />
    <path
       sodipodi:type="arc"
       style="fill:#2b1100;fill-opacity:1;stroke:none;display:inline"
       id="path6032-0-8-2-0-5-5-8-1-6-0"
       sodipodi:cx="28.869844"
       sodipodi:cy="47.727844"
       sodipodi:rx="0.11048543"
       sodipodi:ry="0.11048543"
       d="m 28.98033,47.727844 a 0.11048543,0.11048543 0 1 1 -0.220971,0 0.11048543,0.11048543 0 1 1 0.220971,0 z"
       transform="translate(44.650107,28.640455)" />
  </g>
</svg>
